<?xml version="1.0" standalone="no"?>
<!DOCTYPE svg PUBLIC "-//W3C//DTD SVG 20010904//EN"
 "http://www.w3.org/TR/2001/REC-SVG-20010904/DTD/svg10.dtd">
<svg version="1.0" xmlns="http://www.w3.org/2000/svg"
 width="200.000000pt" height="200.000000pt" viewBox="0 0 200.000000 200.000000"
 preserveAspectRatio="xMidYMid meet">
<metadata>
Created by potrace 1.11, written by Peter Selinger 2001-2013
</metadata>
<g transform="translate(0.000000,200.000000) scale(0.100000,-0.100000)"
fill="#000000" stroke="none">
<path d="M118 1980 c-45 -24 -82 -71 -103 -129 -23 -65 -23 -1637 0 -1702 21
-59 59 -105 105 -129 38 -20 60 -20 880 -20 820 0 842 0 880 20 46 24 84 70
105 129 23 65 23 1637 0 1702 -21 59 -59 105 -105 129 -38 20 -60 20 -882 20
-816 -1 -844 -2 -880 -20z m512 -145 l0 -25 -100 0 -101 0 3 -87 3 -88 98 -3
c89 -2 97 -4 97 -22 0 -19 -7 -20 -103 -20 -132 0 -140 7 -145 119 -4 87 8
128 40 141 13 5 65 9 116 9 92 1 92 1 92 -24z m-312 -61 c27 -18 30 -69 5 -96
-12 -13 -31 -18 -75 -18 -51 0 -58 2 -58 19 0 17 8 20 53 23 44 3 52 6 52 23
0 17 -8 20 -53 23 -64 4 -82 -8 -82 -53 0 -57 7 -65 61 -65 42 0 49 -3 49 -20
0 -18 -7 -20 -55 -20 -74 0 -95 20 -95 94 0 39 6 60 21 80 18 23 27 26 88 26
44 0 74 -5 89 -16z m552 -4 c16 -16 20 -33 20 -82 0 -87 -12 -98 -108 -98 -99
0 -112 11 -112 97 0 88 16 103 110 103 57 0 74 -4 90 -20z m110 -44 c0 -83 13
-98 84 -94 l51 3 3 78 c3 69 5 77 23 77 19 0 20 -6 17 -97 l-3 -98 -83 -3
c-76 -3 -84 -1 -107 22 -22 22 -25 33 -25 101 0 68 2 75 20 75 18 0 20 -7 20
-64z m410 44 c0 -17 -7 -20 -49 -20 -79 0 -81 -2 -81 -86 0 -72 -1 -74 -25
-74 -24 0 -25 2 -25 77 0 65 3 80 22 100 18 20 31 23 90 23 61 0 68 -2 68 -20z
m210 0 c0 -17 -8 -19 -65 -22 -84 -4 -89 -22 -8 -26 68 -3 93 -22 93 -69 0
-46 -32 -63 -120 -63 -73 0 -80 2 -80 20 0 18 7 20 74 20 51 0 76 4 79 13 10
28 -6 37 -63 37 -64 0 -90 15 -90 52 0 43 27 58 107 58 66 0 73 -2 73 -20z
m260 -7 c24 -30 20 -69 -7 -90 -9 -7 -41 -13 -70 -13 -46 0 -53 3 -53 20 0 17
7 20 49 20 33 0 51 5 54 14 10 24 -19 37 -75 34 l-53 -3 0 -55 0 -55 53 -3
c44 -3 52 -6 52 -23 0 -17 -7 -19 -57 -19 -80 0 -93 15 -93 101 0 86 14 99
111 99 61 0 69 -2 89 -27z m-997 -325 c2 -7 -1 -20 -6 -29 -7 -12 -2 -31 23
-76 l33 -61 81 0 c45 0 111 -7 148 -16 l67 -17 46 31 c86 59 195 104 262 108
56 4 64 2 88 -23 25 -24 27 -32 23 -88 -4 -68 -49 -176 -109 -263 l-31 -46 17
-61 c27 -93 23 -225 -7 -314 -77 -219 -264 -354 -493 -355 -57 -1 -112 5 -152
17 l-61 17 -46 -31 c-87 -60 -195 -105 -263 -109 -56 -4 -64 -2 -88 23 -25 24
-27 32 -23 88 4 67 49 176 108 262 l31 46 -16 67 c-31 121 -19 266 29 362 l22
45 -34 62 -33 62 38 10 c21 5 61 16 90 23 40 10 68 27 122 76 38 34 72 62 75
62 3 0 12 -13 20 -29 12 -23 20 -27 41 -24 14 3 25 7 25 9 0 10 -50 103 -58
108 -4 2 -48 -33 -98 -78 l-91 -83 -132 -33 c-92 -23 -136 -29 -143 -22 -15
15 -7 24 101 111 87 70 113 85 227 130 137 53 160 59 167 39z"/>
<path d="M721 1736 c-7 -8 -11 -34 -9 -58 l3 -43 65 0 65 0 3 43 c2 24 -2 50
-9 58 -15 19 -103 19 -118 0z"/>
<path d="M1436 1309 c-58 -23 -176 -91 -176 -101 0 -4 10 -10 21 -13 28 -9
155 -136 164 -164 3 -11 9 -21 13 -21 10 0 87 138 106 191 10 25 16 63 14 85
-3 39 -3 39 -48 41 -27 1 -65 -6 -94 -18z"/>
<path d="M893 1213 c-23 -4 -32 -23 -12 -23 6 0 -3 -16 -20 -35 -31 -36 -71
-105 -71 -125 0 -6 37 -10 100 -10 l100 0 0 90 c0 53 4 90 10 90 6 0 10 -37
10 -90 l0 -90 100 0 c63 0 100 4 100 10 0 20 -40 89 -72 126 -31 36 -32 37 -8
29 31 -9 51 -34 86 -107 l27 -57 65 -3 c41 -2 67 -8 70 -15 3 -10 -14 -13 -63
-13 -59 0 -66 -2 -61 -17 16 -41 29 -164 19 -174 -7 -7 -12 6 -17 43 -4 29
-12 74 -17 101 l-11 47 -109 0 -110 0 3 -107 3 -108 63 -3 c84 -4 79 -26 -7
-30 l-62 -3 3 -112 3 -112 107 -3 106 -3 7 31 c9 40 29 40 22 0 l-6 -30 64 0
c37 0 65 -4 65 -10 0 -6 -28 -10 -64 -10 l-64 0 -44 -81 c-28 -54 -51 -85 -67
-91 l-24 -8 25 32 c14 18 37 57 52 86 32 63 32 64 -90 60 l-89 -3 -3 -92 c-1
-51 -7 -93 -12 -93 -5 0 -11 42 -12 93 l-3 92 -97 3 c-84 2 -98 0 -98 -13 0
-20 36 -91 68 -133 l25 -32 -24 8 c-16 6 -39 37 -67 91 l-44 81 -64 0 c-36 0
-64 4 -64 10 0 6 29 10 66 10 58 0 65 2 60 17 -16 41 -29 164 -19 174 7 7 13
-7 18 -48 3 -32 11 -77 17 -100 l10 -43 109 0 109 0 0 115 0 115 -65 0 c-52 0
-63 3 -59 15 4 9 24 15 62 17 l57 3 3 108 3 107 -110 0 -109 0 -7 -30 c-4 -16
-11 -30 -17 -30 -6 0 -8 12 -4 30 l6 30 -64 0 c-42 0 -66 4 -70 13 -7 18 -32
-16 -58 -82 -19 -47 -23 -76 -23 -173 0 -145 8 -156 60 -91 21 26 67 80 102
119 35 40 63 74 63 77 0 2 -23 0 -51 -6 -52 -10 -74 -1 -63 28 5 13 203 57
217 48 11 -7 7 -60 -11 -143 -15 -66 -20 -75 -41 -78 -23 -4 -23 -3 -17 52 4
31 5 56 3 56 -5 0 -135 -153 -186 -218 -43 -55 -38 -73 41 -157 101 -109 205
-155 348 -155 139 0 244 45 341 147 98 102 134 201 127 349 -2 52 -9 99 -14
104 -8 8 -23 -4 -49 -37 -21 -26 -67 -80 -102 -119 -35 -40 -63 -74 -63 -77 0
-3 17 -1 38 4 20 5 44 9 53 9 19 0 30 -21 20 -38 -8 -13 -198 -55 -212 -46
-13 8 -10 58 9 144 15 66 20 75 41 78 24 4 24 3 18 -55 l-7 -58 46 50 c25 28
74 87 110 133 79 99 79 104 -8 197 -103 111 -207 156 -351 154 -45 -1 -92 -4
-104 -6z m-243 -458 c-8 -9 -30 -15 -56 -15 -32 0 -44 4 -44 15 0 12 13 15 56
15 49 0 55 -2 44 -15z m600 11 c0 -3 -4 -8 -10 -11 -5 -3 -10 -1 -10 4 0 6 5
11 10 11 6 0 10 -2 10 -4z m200 -11 c0 -11 -12 -15 -51 -15 -45 0 -50 2 -39
15 7 9 29 15 51 15 28 0 39 -4 39 -15z"/>
<path d="M720 1049 l-55 -28 46 -1 c40 0 47 3 58 26 6 15 10 28 9 29 -2 2 -28
-10 -58 -26z"/>
<path d="M494 417 c-55 -96 -76 -155 -72 -203 3 -38 4 -39 42 -42 22 -2 60 4
85 14 53 19 191 96 191 106 0 4 -10 10 -21 13 -28 9 -155 136 -164 164 -3 11
-9 21 -13 21 -4 0 -26 -33 -48 -73z"/>
</g>
</svg>
